<svg width="48" height="48" viewBox="0 0 48 48" fill="none" xmlns="http://www.w3.org/2000/svg">
    <mask id="mask0_1_40" style="mask-type:alpha" maskUnits="userSpaceOnUse" x="0" y="0" width="48"
        height="48">
        <rect width="48" height="48" fill="#D9D9D9" />
    </mask>
    <g mask="url(#mask0_1_40)">
        <path
            d="M6.1499 36.3996V33.7996C6.1499 32.9329 6.3749 32.2079 6.8249 31.6246C7.2749 31.0413 7.88232 30.5648 8.64715 30.1953C10.2823 29.4315 11.8916 28.8079 13.4749 28.3246C15.0582 27.8413 17.0832 27.5996 19.5499 27.5996C22.0166 27.5996 24.0416 27.8413 25.6249 28.3246C27.2082 28.8079 28.8175 29.4315 30.4527 30.1953C31.2175 30.5648 31.8249 31.0413 32.2749 31.6246C32.7249 32.2079 32.9499 32.9329 32.9499 33.7996V36.3996H6.1499ZM36.9499 36.3996V33.7996C36.9499 32.7329 36.7675 31.7332 36.4026 30.8005C36.0377 29.8678 35.5201 29.0675 34.8499 28.3996C35.6166 28.5996 36.3666 28.8579 37.0999 29.1746C37.8332 29.4913 38.5832 29.8329 39.3499 30.1996C40.1166 30.5663 40.7249 31.0689 41.1749 31.7076C41.6249 32.3463 41.8499 33.0436 41.8499 33.7996V36.3996H36.9499ZM19.5499 22.3996C18.0649 22.3996 16.7937 21.8709 15.7362 20.8134C14.6787 19.7559 14.1499 18.4846 14.1499 16.9996C14.1499 15.5146 14.6787 14.2434 15.7362 13.1859C16.7937 12.1284 18.0649 11.5996 19.5499 11.5996C21.0349 11.5996 22.3062 12.1284 23.3637 13.1859C24.4212 14.2434 24.9499 15.5146 24.9499 16.9996C24.9499 18.4846 24.4212 19.7559 23.3637 20.8134C22.3062 21.8709 21.0349 22.3996 19.5499 22.3996ZM32.4499 16.9996C32.4499 18.4846 31.9212 19.7559 30.8637 20.8134C29.8062 21.8709 28.5349 22.3996 27.0499 22.3996C27.6606 21.6408 28.13 20.7991 28.458 19.8744C28.7859 18.9496 28.9499 17.9893 28.9499 16.9934C28.9499 15.9975 28.7749 15.0496 28.4249 14.1496C28.0749 13.2496 27.6166 12.3996 27.0499 11.5996C28.5349 11.5996 29.8062 12.1284 30.8637 13.1859C31.9212 14.2434 32.4499 15.5146 32.4499 16.9996ZM7.5499 34.9996H31.5499V33.7996C31.5499 33.2996 31.4249 32.8663 31.1749 32.4996C30.9249 32.1329 30.4499 31.7663 29.7499 31.3996C28.3499 30.6329 26.8499 30.0413 25.2499 29.6246C23.6499 29.2079 21.7499 28.9996 19.5499 28.9996C17.3499 28.9996 15.4499 29.2079 13.8499 29.6246C12.2499 30.0413 10.7499 30.6329 9.3499 31.3996C8.6499 31.7663 8.1749 32.1329 7.9249 32.4996C7.6749 32.8663 7.5499 33.2996 7.5499 33.7996V34.9996ZM19.5499 20.9996C20.6499 20.9996 21.5916 20.6079 22.3749 19.8246C23.1582 19.0413 23.5499 18.0996 23.5499 16.9996C23.5499 15.8996 23.1582 14.9579 22.3749 14.1746C21.5916 13.3913 20.6499 12.9996 19.5499 12.9996C18.4499 12.9996 17.5082 13.3913 16.7249 14.1746C15.9416 14.9579 15.5499 15.8996 15.5499 16.9996C15.5499 18.0996 15.9416 19.0413 16.7249 19.8246C17.5082 20.6079 18.4499 20.9996 19.5499 20.9996Z"
            fill="#E1E2E9" />
    </g>
</svg>