<svg width="48" height="48" viewBox="0 0 48 48" fill="none" xmlns="http://www.w3.org/2000/svg">
<mask id="mask0_1_44" style="mask-type:alpha" maskUnits="userSpaceOnUse" x="0" y="0" width="48" height="48">
<path d="M0 0H48V48H0V0Z" fill="#D9D9D9"/>
</mask>
<g mask="url(#mask0_1_44)">
<g filter="url(#filter0_f_1_44)">
<path d="M12.0001 37.9999H19.8001V26.2999H28.2001V37.9999H36.0001V19.9999L24.0001 10.8999L12.0001 19.9999V37.9999ZM10.6001 39.3999V19.2999L24.0001 9.1499L37.4001 19.2999V39.3999H26.8001V27.6999H21.2001V39.3999H10.6001Z" fill="#00FFFF"/>
<path d="M11.5001 37.9999V38.4999H12.0001H19.8001H20.3001V37.9999V26.7999H27.7001V37.9999V38.4999H28.2001H36.0001H36.5001V37.9999V19.9999V19.7516L36.3022 19.6015L24.3022 10.5015L24.0001 10.2724L23.698 10.5015L11.698 19.6015L11.5001 19.7516V19.9999V37.9999ZM36.9001 19.5484V38.8999H27.3001V27.6999V27.1999H26.8001H21.2001H20.7001V27.6999V38.8999H11.1001V19.5484L24.0001 9.77715L36.9001 19.5484Z" stroke="#00FFFF"/>
</g>
<path d="M11.5001 37.9999V38.4999H12.0001H19.8001H20.3001V37.9999V26.7999H27.7001V37.9999V38.4999H28.2001H36.0001H36.5001V37.9999V19.9999V19.7516L36.3022 19.6015L24.3022 10.5015L24.0001 10.2724L23.698 10.5015L11.698 19.6015L11.5001 19.7516V19.9999V37.9999ZM36.9001 19.5484V38.8999H27.3001V27.6999V27.1999H26.8001H21.2001H20.7001V27.6999V38.8999H11.1001V19.5484L24.0001 9.77715L36.9001 19.5484Z" fill="#00FFFF" stroke="#00FFFF"/>
</g>
<defs>
<filter id="filter0_f_1_44" x="8.6001" y="7.1499" width="30.7998" height="34.25" filterUnits="userSpaceOnUse" color-interpolation-filters="sRGB">
<feFlood flood-opacity="0" result="BackgroundImageFix"/>
<feBlend mode="normal" in="SourceGraphic" in2="BackgroundImageFix" result="shape"/>
<feGaussianBlur stdDeviation="1" result="effect1_foregroundBlur_1_44"/>
</filter>
</defs>
</svg>
