<svg width="48" height="48" viewBox="0 0 48 48" fill="none" xmlns="http://www.w3.org/2000/svg">
    <mask id="mask0_1_48" style="mask-type:alpha" maskUnits="userSpaceOnUse" x="0" y="0" width="48"
        height="48">
        <path d="M0 0H48V48H0V0Z" fill="#D9D9D9" />
    </mask>
    <g mask="url(#mask0_1_48)">
        <path
            d="M11.5001 37.9999V38.4999H12.0001H19.8001H20.3001V37.9999V26.7999H27.7001V37.9999V38.4999H28.2001H36.0001H36.5001V37.9999V19.9999V19.7516L36.3022 19.6015L24.3022 10.5015L24.0001 10.2724L23.698 10.5015L11.698 19.6015L11.5001 19.7516V19.9999V37.9999ZM36.9001 19.5484V38.8999H27.3001V27.6999V27.1999H26.8001H21.2001H20.7001V27.6999V38.8999H11.1001V19.5484L24.0001 9.77715L36.9001 19.5484Z"
            fill="#E1E2E9" stroke="#E1E2E9" />
    </g>
</svg>