<svg width="36" height="36" viewBox="0 0 36 36" fill="none" xmlns="http://www.w3.org/2000/svg">
    <path
        d="M35.3939 18.162C35.3147 27.7122 27.5488 35.412 17.997 35.412C8.44521 35.412 0.679314 27.7122 0.600101 18.162C0.732123 19.836 2.85648 21.348 6.18703 22.404C10.0225 23.5196 14.0029 24.0575 17.997 24C21.9911 24.0575 25.9715 23.5196 29.807 22.404C33.1375 21.348 35.2619 19.836 35.3939 18.162Z"
        fill="#9E9E9E" />
    <path
        d="M4.38673 22.404C8.22224 23.5196 12.2026 24.0575 16.1967 24C16.5003 24 16.7968 23.9904 17.0968 23.985C13.404 23.973 9.7313 23.4408 6.18703 22.404M33.3686 20.8128C32.0483 28.8912 25.2732 34.9548 17.0968 35.3772C17.3953 35.3924 17.6953 35.4 17.997 35.4C27.5458 35.403 35.3111 27.708 35.3939 18.162C35.3189 19.1166 34.594 20.0178 33.3686 20.8128ZM24.166 1.72799C22.9058 3.20999 20.6134 4.19999 17.997 4.19999C15.3806 4.19999 13.0882 3.20999 11.828 1.72799C15.8031 0.224212 20.1908 0.224212 24.166 1.72799Z"
        fill="#707070" />
    <path
        d="M35.3999 18C35.4007 18.054 35.3987 18.108 35.3939 18.162C35.2619 19.836 33.1375 21.348 29.807 22.404C25.9715 23.5196 21.9911 24.0575 17.997 24C14.0029 24.0575 10.0225 23.5196 6.18703 22.404C2.85648 21.348 0.732123 19.836 0.600101 18.162C0.594451 18.1082 0.592446 18.0541 0.5941 18C0.592871 14.4681 1.66703 11.0195 3.67373 8.11287C5.68044 5.20621 8.52459 2.9792 11.828 1.72799C13.0882 3.20999 15.3806 4.19999 17.997 4.19999C20.6134 4.19999 22.9058 3.20999 24.166 1.72799C27.4694 2.9792 30.3136 5.20621 32.3203 8.11287C34.327 11.0195 35.4011 14.4681 35.3999 18Z"
        fill="#9E9E9E" />
    <path
        d="M16.1967 4.19999C16.5021 4.19999 16.8016 4.18379 17.0968 4.15739C15.0941 4.05256 13.208 3.18293 11.828 1.72799C11.3984 1.89173 10.9752 2.07186 10.5594 2.26799C12.1455 3.56793 14.1465 4.25372 16.1967 4.19999ZM24.166 1.72799C24.0012 1.91999 23.824 2.09999 23.6343 2.26799C26.6158 3.67639 29.1356 5.90302 30.8999 8.68836C32.6643 11.4737 33.6005 14.703 33.5996 18C33.6004 18.054 33.5984 18.108 33.5936 18.162C33.4616 19.836 31.3372 21.348 28.0067 22.404C24.4624 23.4408 20.7897 23.973 17.0968 23.985C17.3969 23.9904 17.6933 24 17.997 24C21.9911 24.0575 25.9715 23.5196 29.807 22.404C33.1375 21.348 35.2619 19.836 35.3939 18.162C35.3991 18.108 35.4011 18.054 35.3999 18C35.4011 14.4681 34.327 11.0195 32.3203 8.11287C30.3136 5.20621 27.4694 2.9792 24.166 1.72799Z"
        fill="#707070" />
    <path
        d="M28.6848 22.404L28.7688 22.71C25.2493 23.605 21.6283 24.0387 17.997 24C14.3657 24.0387 10.7447 23.605 7.2252 22.71L7.30922 22.404C6.35716 19.759 6.35716 16.865 7.30922 14.22C8.07592 11.9957 9.51772 10.066 11.4336 8.70006C13.3495 7.33411 15.6439 6.59995 17.997 6.59995C20.3501 6.59995 22.6445 7.33411 24.5604 8.70006C26.4763 10.066 27.9181 11.9957 28.6848 14.22C29.6368 16.865 29.6368 19.759 28.6848 22.404Z"
        fill="#707070" />
    <path
        d="M26.9985 18.312C26.9987 19.132 26.8938 19.9486 26.6864 20.742C23.828 21.3312 20.9155 21.6188 17.997 21.6C15.0765 21.6187 12.1621 21.3312 9.30155 20.742C8.81748 18.8563 8.90945 16.8689 9.56559 15.036C10.1851 13.2887 11.3256 11.7733 12.8331 10.694C14.3407 9.61472 16.143 9.02349 17.997 8.99999C19.851 9.02349 21.6533 9.61472 23.1609 10.694C24.6684 11.7733 25.8089 13.2887 26.4284 15.036C26.8076 16.0865 27.0005 17.1952 26.9985 18.312Z"
        fill="#00BCD4" />
    <path
        d="M26.4284 15.036C25.8089 13.2887 24.6684 11.7733 23.1609 10.694C21.6533 9.61472 19.851 9.02349 17.997 8.99999C17.6961 9.00199 17.3961 9.01979 17.0968 9.05339C18.7854 9.24872 20.3857 9.91255 21.7166 10.9698C23.0475 12.0271 24.0561 13.4355 24.6281 15.036C25.2874 16.8685 25.3774 18.8575 24.8861 20.742C22.3229 21.2735 19.7144 21.5573 17.0968 21.5892C17.3969 21.5946 17.6969 21.6 17.997 21.6C20.9155 21.6188 23.828 21.3312 26.6864 20.742C27.1777 18.8575 27.0877 16.8685 26.4284 15.036Z"
        fill="#00838F" />
    <path
        d="M11.996 15.6C11.8773 15.6 11.7613 15.5648 11.6627 15.4988C11.564 15.4329 11.4871 15.3392 11.4417 15.2296C11.3963 15.12 11.3844 14.9993 11.4075 14.883C11.4307 14.7666 11.4878 14.6597 11.5717 14.5758L14.5722 11.5758C14.6854 11.4665 14.837 11.406 14.9943 11.4074C15.1517 11.4088 15.3022 11.4719 15.4135 11.5831C15.5247 11.6943 15.5878 11.8448 15.5892 12.0022C15.5906 12.1595 15.5301 12.311 15.4208 12.4242L12.4203 15.4242C12.3078 15.5367 12.1551 15.6 11.996 15.6ZM11.996 19.2C11.8773 19.2 11.7613 19.1648 11.6627 19.0988C11.564 19.0329 11.4871 18.9392 11.4417 18.8296C11.3963 18.72 11.3844 18.5993 11.4075 18.483C11.4307 18.3666 11.4878 18.2597 11.5717 18.1758L18.1728 11.5758C18.286 11.4665 18.4376 11.406 18.5949 11.4074C18.7523 11.4088 18.9028 11.4719 19.0141 11.5831C19.1253 11.6943 19.1884 11.8448 19.1898 12.0022C19.1912 12.1595 19.1307 12.311 19.0214 12.4242L12.4203 19.0242C12.3078 19.1367 12.1551 19.2 11.996 19.2Z"
        fill="white" />
    <path
        d="M32.3766 7.17179C32.3694 7.16339 32.3592 7.15979 32.352 7.15199C30.3049 4.44942 27.5393 2.37659 24.3707 1.16999C24.3575 1.16399 24.3439 1.15859 24.3299 1.15379C20.2465 -0.384596 15.7427 -0.384596 11.6593 1.15379C11.6457 1.15859 11.6321 1.16399 11.6185 1.16999C8.44988 2.37659 5.68426 4.44942 3.63721 7.15199C3.63001 7.15979 3.6198 7.16339 3.6126 7.17179L3.5946 7.21199C1.88461 9.49397 0.741412 12.1495 0.259189 14.9599C-0.223034 17.7702 -0.0304763 20.6549 0.820996 23.3763C1.67247 26.0976 3.15849 28.5777 5.15661 30.6123C7.15473 32.6468 9.60776 34.1776 12.3136 35.0783C15.0194 35.9791 17.9006 36.2242 20.7197 35.7934C23.5389 35.3625 26.2153 34.2681 28.5284 32.6003C30.8416 30.9325 32.7253 28.739 34.0243 26.2005C35.3233 23.6621 36.0005 20.8514 36 18C36.0043 14.1083 34.7404 10.3212 32.3994 7.21199C32.3898 7.19999 32.3868 7.18379 32.3766 7.17179ZM23.0408 1.97459C21.5887 3.06516 19.8128 3.63746 17.997 3.59999C16.1822 3.63678 14.4075 3.06452 12.9562 1.97459C16.2394 0.941568 19.7606 0.941568 23.0438 1.97459H23.0408ZM11.6821 2.43599C13.3944 4.02334 15.6631 4.87262 17.997 4.79999C20.3309 4.87262 22.5996 4.02334 24.3118 2.43599C26.9563 3.51407 29.2837 5.24601 31.0756 7.46939C29.745 8.47688 28.2737 9.28349 26.7086 9.86339C25.6069 8.64686 24.2625 7.67457 22.7621 7.00916C21.2616 6.34374 19.6384 5.99996 17.997 5.99996C16.3556 5.99996 14.7324 6.34374 13.2319 7.00916C11.7315 7.67457 10.3871 8.64686 9.28535 9.86339C7.72031 9.28349 6.24896 8.47688 4.91842 7.46939C6.71032 5.24601 9.03765 3.51407 11.6821 2.43599ZM17.3969 24.5904V34.761C13.1212 34.3722 9.31775 29.877 7.90152 23.4948C11.0166 24.2085 14.2011 24.576 17.3969 24.5904ZM18.5971 34.761V24.5904C21.7929 24.576 24.9774 24.2085 28.0925 23.4948C26.6762 29.88 22.8728 34.3722 18.5971 34.761ZM28.1177 22.2C28.1139 22.2198 28.1111 22.2399 28.1093 22.26C24.7968 23.046 21.4014 23.4288 17.997 23.4C14.5926 23.4288 11.1972 23.046 7.88471 22.26C7.87991 22.2408 7.88471 22.221 7.87631 22.2C6.96875 19.6872 6.96875 16.9362 7.87631 14.4234C8.62195 12.329 9.99199 10.5136 11.8017 9.22201C13.6114 7.93039 15.7737 7.22466 17.997 7.19999C20.2203 7.22414 22.3827 7.92953 24.1924 9.22098C26.0022 10.5124 27.3722 12.3278 28.1177 14.4222C29.0259 16.9351 29.0259 19.6871 28.1177 22.2ZM4.1983 8.42999C5.50571 9.4232 6.94287 10.2329 8.46981 10.8366C7.74251 11.8047 7.16216 12.8748 6.74752 14.0124C5.8307 16.5401 5.74993 19.2953 6.51709 21.8724C6.46908 21.8574 6.41627 21.8448 6.36886 21.8298C3.12892 20.8032 1.1942 19.371 1.1942 18C1.191 14.5776 2.2397 11.2368 4.1983 8.42999ZM1.40364 20.64C2.7655 21.7187 4.33036 22.5126 6.0052 22.9746C6.19843 23.0346 6.40667 23.0946 6.6053 23.1498C6.6043 23.1698 6.6043 23.1898 6.6053 23.2098C7.52825 27.867 9.5896 31.5846 12.254 33.7878C9.43987 32.7584 6.95103 30.9975 5.04387 28.6865C3.1367 26.3755 1.88015 23.598 1.40364 20.64ZM23.7382 33.789C26.4026 31.5858 28.4639 27.8682 29.3869 23.211C29.3879 23.191 29.3879 23.171 29.3869 23.151C29.5873 23.091 29.795 23.0382 29.987 22.9764C31.6626 22.5141 33.2281 21.7195 34.5904 20.64C34.1139 23.5984 32.8571 26.3763 30.9496 28.6875C29.0421 30.9988 26.5528 32.7597 23.7382 33.789ZM29.6245 21.8322C29.5771 21.8472 29.5249 21.8604 29.4769 21.8754C30.2454 19.2975 30.1644 16.5408 29.2459 14.0124C28.8314 12.8748 28.2513 11.8047 27.5242 10.8366C29.0511 10.2329 30.4883 9.4232 31.7957 8.42999C33.7543 11.2368 34.803 14.5776 34.7998 18C34.7998 19.371 32.8651 20.8032 29.6245 21.8322Z"
        fill="black" />
    <path
        d="M17.997 8.39999C16.0196 8.42355 14.0971 9.05283 12.4886 10.2029C10.88 11.3531 9.66298 12.9687 9.0015 14.832C8.59858 15.9479 8.39347 17.1256 8.3954 18.312C8.39328 19.1823 8.50259 20.0494 8.72065 20.892C8.74856 20.9995 8.80574 21.0971 8.88584 21.174C8.96593 21.2509 9.0658 21.3041 9.17433 21.3276C12.0767 21.9257 15.0337 22.2181 17.997 22.2C20.9583 22.2187 23.9134 21.9265 26.8137 21.3282C26.9222 21.3047 27.0221 21.2515 27.1022 21.1746C27.1822 21.0977 27.2394 21.0001 27.2673 20.8926C27.7885 18.891 27.6925 16.7787 26.9919 14.8326C26.3305 12.9693 25.1136 11.3536 23.5052 10.2034C21.8968 9.05314 19.9743 8.42372 17.997 8.39999ZM26.1908 20.2332C23.4915 20.7586 20.7469 21.0155 17.997 21C15.2451 21.0151 12.4985 20.7583 9.79723 20.2332C9.66263 19.6017 9.59504 18.9577 9.5956 18.312C9.59365 17.2651 9.77439 16.2259 10.1297 15.2412C10.7071 13.6096 11.7708 12.1942 13.1774 11.1855C14.5841 10.1769 16.2662 9.62352 17.997 9.59999C19.7276 9.62356 21.4094 10.1768 22.8159 11.1852C24.2225 12.1936 25.2861 13.6087 25.8637 15.24C26.4394 16.8407 26.5527 18.5711 26.1908 20.2332Z"
        fill="black" />
    <path
        d="M16.1967 27C16.5281 27 16.7968 26.7314 16.7968 26.4C16.7968 26.0686 16.5281 25.8 16.1967 25.8C15.8653 25.8 15.5966 26.0686 15.5966 26.4C15.5966 26.7314 15.8653 27 16.1967 27Z"
        fill="black" />
    <path
        d="M9.5956 25.8C9.92702 25.8 10.1957 25.5314 10.1957 25.2C10.1957 24.8686 9.92702 24.6 9.5956 24.6C9.26417 24.6 8.9955 24.8686 8.9955 25.2C8.9955 25.5314 9.26417 25.8 9.5956 25.8Z"
        fill="black" />
    <path
        d="M5.3949 24.6C5.72633 24.6 5.995 24.3314 5.995 24C5.995 23.6686 5.72633 23.4 5.3949 23.4C5.06347 23.4 4.7948 23.6686 4.7948 24C4.7948 24.3314 5.06347 24.6 5.3949 24.6Z"
        fill="black" />
    <path
        d="M4.7948 20.4C5.12623 20.4 5.3949 20.1314 5.3949 19.8C5.3949 19.4686 5.12623 19.2 4.7948 19.2C4.46337 19.2 4.1947 19.4686 4.1947 19.8C4.1947 20.1314 4.46337 20.4 4.7948 20.4Z"
        fill="black" />
    <path
        d="M2.9945 19.2C3.32593 19.2 3.5946 18.9314 3.5946 18.6C3.5946 18.2686 3.32593 18 2.9945 18C2.66307 18 2.3944 18.2686 2.3944 18.6C2.3944 18.9314 2.66307 19.2 2.9945 19.2Z"
        fill="black" />
    <path
        d="M31.1992 20.4C31.5306 20.4 31.7993 20.1314 31.7993 19.8C31.7993 19.4686 31.5306 19.2 31.1992 19.2C30.8678 19.2 30.5991 19.4686 30.5991 19.8C30.5991 20.1314 30.8678 20.4 31.1992 20.4Z"
        fill="black" />
    <path
        d="M32.9995 19.2C33.3309 19.2 33.5996 18.9314 33.5996 18.6C33.5996 18.2686 33.3309 18 32.9995 18C32.6681 18 32.3994 18.2686 32.3994 18.6C32.3994 18.9314 32.6681 19.2 32.9995 19.2Z"
        fill="black" />
    <path
        d="M10.7958 4.79999C11.1272 4.79999 11.3959 4.53136 11.3959 4.19999C11.3959 3.86862 11.1272 3.59999 10.7958 3.59999C10.4644 3.59999 10.1957 3.86862 10.1957 4.19999C10.1957 4.53136 10.4644 4.79999 10.7958 4.79999Z"
        fill="black" />
    <path
        d="M13.1962 5.99999C13.5276 5.99999 13.7963 5.73136 13.7963 5.39999C13.7963 5.06862 13.5276 4.79999 13.1962 4.79999C12.8648 4.79999 12.5961 5.06862 12.5961 5.39999C12.5961 5.73136 12.8648 5.99999 13.1962 5.99999Z"
        fill="black" />
    <path
        d="M22.1977 5.99999C22.5291 5.99999 22.7978 5.73136 22.7978 5.39999C22.7978 5.06862 22.5291 4.79999 22.1977 4.79999C21.8663 4.79999 21.5976 5.06862 21.5976 5.39999C21.5976 5.73136 21.8663 5.99999 22.1977 5.99999Z"
        fill="black" />
    <path
        d="M24.5981 4.79999C24.9295 4.79999 25.1982 4.53136 25.1982 4.19999C25.1982 3.86862 24.9295 3.59999 24.5981 3.59999C24.2667 3.59999 23.998 3.86862 23.998 4.19999C23.998 4.53136 24.2667 4.79999 24.5981 4.79999Z"
        fill="black" />
    <path
        d="M5.995 27C6.32643 27 6.5951 26.7314 6.5951 26.4C6.5951 26.0686 6.32643 25.8 5.995 25.8C5.66357 25.8 5.3949 26.0686 5.3949 26.4C5.3949 26.7314 5.66357 27 5.995 27Z"
        fill="black" />
    <path
        d="M7.1952 29.4C7.52663 29.4 7.7953 29.1314 7.7953 28.8C7.7953 28.4686 7.52663 28.2 7.1952 28.2C6.86377 28.2 6.5951 28.4686 6.5951 28.8C6.5951 29.1314 6.86377 29.4 7.1952 29.4Z"
        fill="black" />
    <path
        d="M10.7958 28.2C11.1272 28.2 11.3959 27.9314 11.3959 27.6C11.3959 27.2686 11.1272 27 10.7958 27C10.4644 27 10.1957 27.2686 10.1957 27.6C10.1957 27.9314 10.4644 28.2 10.7958 28.2Z"
        fill="black" />
    <path
        d="M11.996 30.6C12.3274 30.6 12.5961 30.3314 12.5961 30C12.5961 29.6686 12.3274 29.4 11.996 29.4C11.6646 29.4 11.3959 29.6686 11.3959 30C11.3959 30.3314 11.6646 30.6 11.996 30.6Z"
        fill="black" />
    <path
        d="M16.1967 30C16.5281 30 16.7968 29.7314 16.7968 29.4C16.7968 29.0686 16.5281 28.8 16.1967 28.8C15.8653 28.8 15.5966 29.0686 15.5966 29.4C15.5966 29.7314 15.8653 30 16.1967 30Z"
        fill="black" />
    <path
        d="M16.1967 33C16.5281 33 16.7968 32.7314 16.7968 32.4C16.7968 32.0686 16.5281 31.8 16.1967 31.8C15.8653 31.8 15.5966 32.0686 15.5966 32.4C15.5966 32.7314 15.8653 33 16.1967 33Z"
        fill="black" />
    <path
        d="M19.7973 27C20.1287 27 20.3974 26.7314 20.3974 26.4C20.3974 26.0686 20.1287 25.8 19.7973 25.8C19.4659 25.8 19.1972 26.0686 19.1972 26.4C19.1972 26.7314 19.4659 27 19.7973 27Z"
        fill="black" />
    <path
        d="M26.9985 8.99999C27.3299 8.99999 27.5986 8.73136 27.5986 8.39999C27.5986 8.06862 27.3299 7.79999 26.9985 7.79999C26.6671 7.79999 26.3984 8.06862 26.3984 8.39999C26.3984 8.73136 26.6671 8.99999 26.9985 8.99999Z"
        fill="black" />
    <path
        d="M28.7988 7.79999C29.1302 7.79999 29.3989 7.53136 29.3989 7.19999C29.3989 6.86862 29.1302 6.59999 28.7988 6.59999C28.4674 6.59999 28.1987 6.86862 28.1987 7.19999C28.1987 7.53136 28.4674 7.79999 28.7988 7.79999Z"
        fill="black" />
    <path
        d="M31.1992 10.8C31.5306 10.8 31.7993 10.5314 31.7993 10.2C31.7993 9.86862 31.5306 9.59999 31.1992 9.59999C30.8678 9.59999 30.5991 9.86862 30.5991 10.2C30.5991 10.5314 30.8678 10.8 31.1992 10.8Z"
        fill="black" />
    <path
        d="M29.3989 12C29.7303 12 29.999 11.7314 29.999 11.4C29.999 11.0686 29.7303 10.8 29.3989 10.8C29.0675 10.8 28.7988 11.0686 28.7988 11.4C28.7988 11.7314 29.0675 12 29.3989 12Z"
        fill="black" />
    <path
        d="M8.9955 8.99999C9.32692 8.99999 9.5956 8.73136 9.5956 8.39999C9.5956 8.06862 9.32692 7.79999 8.9955 7.79999C8.66407 7.79999 8.3954 8.06862 8.3954 8.39999C8.3954 8.73136 8.66407 8.99999 8.9955 8.99999Z"
        fill="black" />
    <path
        d="M7.1952 7.79999C7.52663 7.79999 7.7953 7.53136 7.7953 7.19999C7.7953 6.86862 7.52663 6.59999 7.1952 6.59999C6.86377 6.59999 6.5951 6.86862 6.5951 7.19999C6.5951 7.53136 6.86377 7.79999 7.1952 7.79999Z"
        fill="black" />
    <path
        d="M4.7948 10.8C5.12623 10.8 5.3949 10.5314 5.3949 10.2C5.3949 9.86862 5.12623 9.59999 4.7948 9.59999C4.46337 9.59999 4.1947 9.86862 4.1947 10.2C4.1947 10.5314 4.46337 10.8 4.7948 10.8Z"
        fill="black" />
    <path
        d="M6.5951 12C6.92653 12 7.1952 11.7314 7.1952 11.4C7.1952 11.0686 6.92653 10.8 6.5951 10.8C6.26367 10.8 5.995 11.0686 5.995 11.4C5.995 11.7314 6.26367 12 6.5951 12Z"
        fill="black" />
    <path
        d="M19.7973 30C20.1287 30 20.3974 29.7314 20.3974 29.4C20.3974 29.0686 20.1287 28.8 19.7973 28.8C19.4659 28.8 19.1972 29.0686 19.1972 29.4C19.1972 29.7314 19.4659 30 19.7973 30Z"
        fill="black" />
    <path
        d="M19.7973 33C20.1287 33 20.3974 32.7314 20.3974 32.4C20.3974 32.0686 20.1287 31.8 19.7973 31.8C19.4659 31.8 19.1972 32.0686 19.1972 32.4C19.1972 32.7314 19.4659 33 19.7973 33Z"
        fill="black" />
    <path
        d="M26.3984 25.8C26.7298 25.8 26.9985 25.5314 26.9985 25.2C26.9985 24.8686 26.7298 24.6 26.3984 24.6C26.067 24.6 25.7983 24.8686 25.7983 25.2C25.7983 25.5314 26.067 25.8 26.3984 25.8Z"
        fill="black" />
    <path
        d="M30.5991 24.6C30.9305 24.6 31.1992 24.3314 31.1992 24C31.1992 23.6686 30.9305 23.4 30.5991 23.4C30.2677 23.4 29.999 23.6686 29.999 24C29.999 24.3314 30.2677 24.6 30.5991 24.6Z"
        fill="black" />
    <path
        d="M29.999 27C30.3304 27 30.5991 26.7314 30.5991 26.4C30.5991 26.0686 30.3304 25.8 29.999 25.8C29.6676 25.8 29.3989 26.0686 29.3989 26.4C29.3989 26.7314 29.6676 27 29.999 27Z"
        fill="black" />
    <path
        d="M28.7988 29.4C29.1302 29.4 29.3989 29.1314 29.3989 28.8C29.3989 28.4686 29.1302 28.2 28.7988 28.2C28.4674 28.2 28.1987 28.4686 28.1987 28.8C28.1987 29.1314 28.4674 29.4 28.7988 29.4Z"
        fill="black" />
    <path
        d="M25.1982 28.2C25.5296 28.2 25.7983 27.9314 25.7983 27.6C25.7983 27.2686 25.5296 27 25.1982 27C24.8668 27 24.5981 27.2686 24.5981 27.6C24.5981 27.9314 24.8668 28.2 25.1982 28.2Z"
        fill="black" />
    <path
        d="M23.998 30.6C24.3294 30.6 24.5981 30.3314 24.5981 30C24.5981 29.6686 24.3294 29.4 23.998 29.4C23.6666 29.4 23.3979 29.6686 23.3979 30C23.3979 30.3314 23.6666 30.6 23.998 30.6Z"
        fill="black" />
</svg>