<svg width="48" height="48" viewBox="0 0 48 48" fill="none" xmlns="http://www.w3.org/2000/svg">
<mask id="mask0_1_60" style="mask-type:alpha" maskUnits="userSpaceOnUse" x="0" y="0" width="48" height="48">
<rect width="48" height="48" fill="#D9D9D9"/>
</mask>
<g mask="url(#mask0_1_60)">
<g filter="url(#filter0_f_1_60)">
<path d="M24.0001 41.2998C20.1668 40.0998 16.9751 37.7331 14.4251 34.1998C11.8751 30.6665 10.6001 26.6665 10.6001 22.1998V11.7998L24.0001 6.7998L37.4001 11.7998V22.1998C37.4001 24.2665 37.0918 26.3081 36.4751 28.3248C35.8584 30.3415 34.8668 32.3331 33.5001 34.2998L27.4001 28.1998C26.9334 28.5998 26.4084 28.8998 25.8251 29.0998C25.2418 29.2998 24.6334 29.3998 24.0001 29.3998C22.5151 29.3998 21.2438 28.8711 20.1863 27.8136C19.1288 26.7561 18.6001 25.4848 18.6001 23.9998C18.6001 22.5148 19.1288 21.2436 20.1863 20.1861C21.2438 19.1286 22.5151 18.5998 24.0001 18.5998C25.4851 18.5998 26.7563 19.1286 27.8138 20.1861C28.8713 21.2436 29.4001 22.5148 29.4001 23.9998C29.4001 24.5818 29.3084 25.144 29.1251 25.6863C28.9418 26.2286 28.7001 26.7331 28.4001 27.1998L33.3001 32.0998C34.1001 30.6331 34.7501 29.0915 35.2501 27.4748C35.7501 25.8581 36.0001 24.0998 36.0001 22.1998V12.7498L24.0001 8.2998L12.0001 12.7498V22.1998C12.0001 26.2331 13.1334 29.8998 15.4001 33.1998C17.6668 36.4998 20.5334 38.6998 24.0001 39.7998C24.8668 39.5331 25.6918 39.1915 26.4751 38.7748C27.2584 38.3581 28.0334 37.8665 28.8001 37.2998L29.6001 38.3998C28.6334 39.0665 27.7334 39.6248 26.9001 40.0748C26.0668 40.5248 25.1001 40.9331 24.0001 41.2998ZM24.0001 27.9998C25.1001 27.9998 26.0418 27.6081 26.8251 26.8248C27.6084 26.0415 28.0001 25.0998 28.0001 23.9998C28.0001 22.8998 27.6084 21.9581 26.8251 21.1748C26.0418 20.3915 25.1001 19.9998 24.0001 19.9998C22.9001 19.9998 21.9584 20.3915 21.1751 21.1748C20.3918 21.9581 20.0001 22.8998 20.0001 23.9998C20.0001 25.0998 20.3918 26.0415 21.1751 26.8248C21.9584 27.6081 22.9001 27.9998 24.0001 27.9998Z" fill="#00FFFF"/>
</g>
<path d="M24.0001 41.2998C20.1668 40.0998 16.9751 37.7331 14.4251 34.1998C11.8751 30.6665 10.6001 26.6665 10.6001 22.1998V11.7998L24.0001 6.7998L37.4001 11.7998V22.1998C37.4001 24.2665 37.0918 26.3081 36.4751 28.3248C35.8584 30.3415 34.8668 32.3331 33.5001 34.2998L27.4001 28.1998C26.9334 28.5998 26.4084 28.8998 25.8251 29.0998C25.2418 29.2998 24.6334 29.3998 24.0001 29.3998C22.5151 29.3998 21.2438 28.8711 20.1863 27.8136C19.1288 26.7561 18.6001 25.4848 18.6001 23.9998C18.6001 22.5148 19.1288 21.2436 20.1863 20.1861C21.2438 19.1286 22.5151 18.5998 24.0001 18.5998C25.4851 18.5998 26.7563 19.1286 27.8138 20.1861C28.8713 21.2436 29.4001 22.5148 29.4001 23.9998C29.4001 24.5818 29.3084 25.144 29.1251 25.6863C28.9418 26.2286 28.7001 26.7331 28.4001 27.1998L33.3001 32.0998C34.1001 30.6331 34.7501 29.0915 35.2501 27.4748C35.7501 25.8581 36.0001 24.0998 36.0001 22.1998V12.7498L24.0001 8.2998L12.0001 12.7498V22.1998C12.0001 26.2331 13.1334 29.8998 15.4001 33.1998C17.6668 36.4998 20.5334 38.6998 24.0001 39.7998C24.8668 39.5331 25.6918 39.1915 26.4751 38.7748C27.2584 38.3581 28.0334 37.8665 28.8001 37.2998L29.6001 38.3998C28.6334 39.0665 27.7334 39.6248 26.9001 40.0748C26.0668 40.5248 25.1001 40.9331 24.0001 41.2998ZM24.0001 27.9998C25.1001 27.9998 26.0418 27.6081 26.8251 26.8248C27.6084 26.0415 28.0001 25.0998 28.0001 23.9998C28.0001 22.8998 27.6084 21.9581 26.8251 21.1748C26.0418 20.3915 25.1001 19.9998 24.0001 19.9998C22.9001 19.9998 21.9584 20.3915 21.1751 21.1748C20.3918 21.9581 20.0001 22.8998 20.0001 23.9998C20.0001 25.0998 20.3918 26.0415 21.1751 26.8248C21.9584 27.6081 22.9001 27.9998 24.0001 27.9998Z" fill="#00FFFF"/>
</g>
<defs>
<filter id="filter0_f_1_60" x="8.6001" y="4.7998" width="30.7998" height="38.5" filterUnits="userSpaceOnUse" color-interpolation-filters="sRGB">
<feFlood flood-opacity="0" result="BackgroundImageFix"/>
<feBlend mode="normal" in="SourceGraphic" in2="BackgroundImageFix" result="shape"/>
<feGaussianBlur stdDeviation="1" result="effect1_foregroundBlur_1_60"/>
</filter>
</defs>
</svg>
